<?xml version="1.0" encoding="UTF-8"?>
<svg id="_图层_1" data-name="图层_1" xmlns="http://www.w3.org/2000/svg" version="1.1" viewBox="0 0 1226.78 297.35">
  <!-- Generator: Adobe Illustrator 29.7.1, SVG Export Plug-In . SVG Version: 2.1.1 Build 8)  -->
  <defs>
    <style>
      .st0 {
        fill: #040000;
      }
    </style>
  </defs>
  <g>
    <path class="st0" d="M136.59,51.59c-1.23,28.71-1.76,44.65-1.82,46.89-.23,3.21-.5,6.44-.81,9.68-.12.85-.24,1.83-.24,2.8-.97,8.77-2.19,17.54-3.65,25.95-3.89,22.29-9.61,43.13-16.66,61.64-2.07,5.72-4.38,11.21-6.82,16.44-7.42,16.21-15.94,30.09-25.18,41.18-3.77-4.63-7.42-9.63-10.95-15.11-4.13-6.34-8.03-13.28-11.68-20.83-1.58-3.17-4.74-5.36-8.39-5.72-4.26-.49-8.64-.97-12.9-1.58-8.27-1.58-13.01-9.26-13.01-9.26,0,0,3.16,8.89,5.72,15.1.12,0,.12.12.12.12,5.47,13.4,11.56,25.83,18.13,36.91,4.02,6.82,8.27,13.28,12.65,19.13,6.45,8.53,13.26,16.08,20.32,22.42,7.05-6.34,13.87-13.89,20.32-22.42,13.02-17.18,24.45-38.74,33.82-63.47,2.07-5.61,4.02-11.33,5.96-17.18,6.33-19.86,11.19-41.42,14.48-64.08.85-5.48,1.58-11.08,2.07-16.69.49-4.51.97-9.02,1.22-13.4.73-9.49,2.8-38.32,2.7-39.63-2.28-1.65-14.88-6.38-25.37-8.89Z"/>
    <path class="st0" d="M62.65,1.22C53.36,2.21,25.66,5.84,0,17.45c.63,32.89,1.46,52.43,5.87,99.86.62,5.45,6.2,46.9,13.87,71.04,1.2,3.78,4.13,6.43,8.02,7.16,4.5.85,9.12,1.46,13.75,2.07,4.87.61,11.19,7.92,11.19,7.92,0,0-3.89-8.77-6.08-14.62-4.56-13.21-8.32-27.46-11.57-42.4-1.52-6.99-2.3-11.58-3.7-21.45,39.34-11.3,66.62-3.98,79.61-1.52,6.48.7,7.28-5.91,7.28-5.91,0,0,.27-3.06,1.6-18.92-49.31-13.6-86.12-2.42-91.7-.73q-2.34-22.47-1.94-59.16c63.8-28.18,124.18,2.05,136.23,7.81.77-17.08,1.8-31.31,1.8-31.31C126.47.12,90.77-1.89,62.65,1.22Z"/>
  </g>
  <g>
    <path class="st0" d="M283.86,203.54h23.86v-61.32s16.45.19,39.99.19v-14.57c-22.2,0-39.99-.52-39.99-.52v-38.46c13.33,0,25.65-.03,41.37-.03v-16.6h-65.23v131.31Z"/>
    <path class="st0" d="M395.92,171.84v-99.62h-26.2v108.67c0,25.15-5.06,39.49-15.17,43.02l2.07,14.04c12.77-4.1,23.34-8.51,30.23-20.58,4.14-5.54,9.52-23.64,9.07-41.75v-3.77Z"/>
    <path class="st0" d="M481.6,72.23h-60v131.31h48.96c40.91-2.51,59.57-25.66,61.87-69.43-1.84-38.74-16.82-59.36-50.84-61.88ZM462.98,186.6h-15.17v-97.02h17.24c27.12,0,40.69,10.83,40.69,44.53,0,39.24-14.26,53-42.75,52.49Z"/>
    <path class="st0" d="M700.47,108.67c-9.42,0-23.86-.87-31,9.75v-6.85h-19.06v91.86h20.2v-43.84c0-11.06,0-16.84,4-22.49,4.86-6.88,9.77-8.38,16.9-8.78,16.85,0,23.7,6.5,23.7,26.13v48.98h20.39v-57.18c0-10.67-1.86-18.68-6.24-25.35-5.15-8.2-15.74-12.24-28.89-12.24Z"/>
    <path class="st0" d="M825.35,119.39c-6.27-7.34-15.25-10.88-29.73-10.88-23.25,0-41.34,18.68-41.34,47.08,0,30.11,17.33,47.84,41.92,47.84,12.39,0,20.98-3.73,29.16-11.32v11.32h20.2v-91.86h-20.2v7.83ZM797.4,185.52c-15.25,0-25.35-13.09-25.35-29.35,0-18.68,10.49-29.73,25.73-29.73s26.26,10.48,26.26,28.97-12.73,30.11-26.64,30.11Z"/>
    <path class="st0" d="M970.43,108.66c-13.72,0-23.35.42-32.5,12.43-4.49-7.11-11.69-11.92-26.81-12.42-6.73-.22-17.16-.15-23.98,8.59v-5.69h-19.06v91.86h20.2v-43.84c0-10.86-.8-16.81,2.63-22.53,3.81-6.29,8.93-8.75,16.93-8.75,13.91,0,20.07,9.32,20.07,26.13v48.98h20.39v-43.84c0-20.95,3.38-31.27,20.91-31.27,15.25,0,18.35,10.88,18.35,26.13v48.98h20.2v-57.18c0-2.48.17-4.96,0-7.05-.68-8.33-2.59-13.87-5.89-18.34-5.58-7.55-11.98-12.21-31.46-12.21Z"/>
    <rect class="st0" x="1030.49" y="111.53" width="20.2" height="91.91"/>
    <rect class="st0" x="1030.49" y="73.55" width="20.2" height="20.2"/>
    <path class="st0" d="M1070.07,155.98c0,28.02,21.21,47.46,48.85,47.46,9.72,0,18.1-2.1,25.54-6.29v-20.69c-9.47,4.26-13.27,6.46-23.25,6.9-17.53,0-30.17-9.46-30.17-27.95s12.83-27.86,29.22-27.86c9.72,0,13.76,1.68,24.2,6.53v-20.03c-6.86-3.81-14.49-5.38-23.44-5.38-29.16,0-50.94,18.91-50.94,47.31Z"/>
    <path class="st0" d="M1204.1,150.75c-13.72-5.53-23.25-8.49-23.25-17.07,0-6.1,4.96-10.1,12.77-10.1,7.05,0,12.58,3.62,14.68,9.15l16.58-4.22c-3.94-15.1-16.58-19.84-30.49-19.84-20.97,0-33.73,10.91-33.73,26.16,0,12.77,8.58,21.02,25.35,28.07,12.2,5.15,20.97,4.52,20.97,13.67,0,7.05-5.34,11.63-14.49,11.63-10.67,0-17.34-4.76-19.82-13.53l-18.94,4.65c7.33,18.49,19.89,24.13,37.04,24.13,23.06,0,36.02-11.06,36.02-28.21,0-12.77-7.24-18.38-22.68-24.48Z"/>
    <path class="st0" d="M587.69,169.88l-2.72-8.23c-.43-1.44-.89-2.89-1.41-4.34l-16.2-45.74h-22.3l31,82.45-22.8,47.34h21.64l62.79-129.79h-21.92l-28.09,58.31Z"/>
  </g>
</svg>