<?xml version="1.0" encoding="UTF-8"?>
<svg id="_图层_1" xmlns="http://www.w3.org/2000/svg" version="1.1" viewBox="0 0 163.93 296.8">
  <!-- Generator: Adobe Illustrator 29.7.1, SVG Export Plug-In . SVG Version: 2.1.1 Build 8)  -->
  <defs>
    <style>
      .st0 {
        fill: #020202;
        fill-rule: evenodd;
      }
    </style>
  </defs>
  <path class="st0" d="M136.34,51.5c-1.22,28.65-1.76,44.57-1.81,46.8-.23,3.21-.49,6.42-.81,9.66-.12.85-.24,1.83-.24,2.8-.97,8.75-2.19,17.51-3.65,25.9-3.88,22.25-9.59,43.05-16.63,61.53-2.06,5.71-4.37,11.19-6.8,16.41-7.41,16.18-15.91,30.04-25.13,41.1-3.76-4.62-7.4-9.61-10.93-15.08-4.13-6.33-8.01-13.26-11.66-20.8-1.58-3.16-4.73-5.35-8.38-5.71-4.25-.49-8.62-.97-12.87-1.58-8.26-1.58-12.99-9.24-12.99-9.24,0,0,3.16,8.87,5.71,15.08.12,0,.12.12.12.12,5.46,13.37,11.53,25.78,18.09,36.84,4.01,6.81,8.26,13.26,12.63,19.09,6.44,8.51,13.24,16.05,20.28,22.38,7.04-6.33,13.84-13.87,20.28-22.38,12.99-17.14,24.41-38.67,33.76-63.35,2.06-5.6,4.01-11.31,5.95-17.15,6.32-19.82,11.17-41.34,14.45-63.96.85-5.47,1.58-11.06,2.06-16.66.49-4.5.97-9,1.21-13.37.73-9.47,2.8-38.25,2.69-39.56-2.27-1.64-14.85-6.37-25.32-8.87h-.01Z"/>
  <path class="st0" d="M62.53,1.21C53.26,2.2,25.61,5.83,0,17.41c.63,32.83,1.46,52.34,5.86,99.68.62,5.44,6.19,46.82,13.85,70.91,1.2,3.77,4.12,6.42,8.01,7.15,4.49.85,9.11,1.46,13.72,2.07,4.86.61,11.17,7.9,11.17,7.9,0,0-3.89-8.76-6.07-14.59-4.55-13.19-8.31-27.41-11.55-42.33-1.52-6.98-2.3-11.56-3.69-21.41,39.27-11.28,66.5-3.97,79.47-1.52,6.47.7,7.26-5.9,7.26-5.9,0,0,.27-3.05,1.59-18.88-49.22-13.58-85.96-2.41-91.53-.73-1.56-14.95-2.21-34.64-1.94-59.05,63.68-28.13,123.96,2.04,135.98,7.79.77-17.05,1.8-31.25,1.8-31.25C126.24.12,90.6-1.89,62.53,1.21Z"/>
</svg>