<?xml version="1.0" encoding="UTF-8"?>
<svg id="_图层_1" data-name="图层_1" xmlns="http://www.w3.org/2000/svg" version="1.1" viewBox="0 0 942.11 296.81">
  <!-- Generator: Adobe Illustrator 29.7.1, SVG Export Plug-In . SVG Version: 2.1.1 Build 8)  -->
  <defs>
    <style>
      .st0 {
        fill-rule: evenodd;
      }

      .st0, .st1 {
        fill: #020202;
      }
    </style>
  </defs>
  <g>
    <path class="st0" d="M136.34,51.5c-1.22,28.65-1.76,44.57-1.81,46.8-.23,3.21-.49,6.42-.81,9.66-.12.85-.24,1.83-.24,2.8-.97,8.75-2.19,17.51-3.65,25.9-3.88,22.25-9.59,43.05-16.63,61.53-2.06,5.71-4.37,11.19-6.8,16.41-7.41,16.18-15.91,30.04-25.13,41.1-3.76-4.62-7.4-9.61-10.93-15.08-4.13-6.33-8.01-13.26-11.66-20.8-1.58-3.16-4.73-5.35-8.38-5.71-4.25-.49-8.62-.97-12.87-1.58-8.26-1.58-12.99-9.24-12.99-9.24,0,0,3.16,8.87,5.71,15.08.12,0,.12.12.12.12,5.46,13.37,11.53,25.78,18.09,36.84,4.01,6.81,8.26,13.26,12.63,19.09,6.44,8.51,13.24,16.05,20.28,22.38,7.04-6.33,13.84-13.87,20.28-22.38,12.99-17.14,24.41-38.67,33.76-63.35,2.06-5.6,4.01-11.31,5.95-17.15,6.32-19.82,11.17-41.34,14.45-63.96.85-5.47,1.58-11.06,2.06-16.66.49-4.5.97-9,1.21-13.37.73-9.47,2.8-38.25,2.69-39.56-2.27-1.64-14.85-6.37-25.32-8.87Z"/>
    <path class="st0" d="M62.53,1.21C53.26,2.2,25.61,5.83,0,17.41c.63,32.83,1.46,52.34,5.86,99.68.62,5.44,6.19,46.82,13.85,70.91,1.2,3.77,4.12,6.42,8.01,7.15,4.49.85,9.11,1.46,13.72,2.07,4.86.61,11.17,7.9,11.17,7.9,0,0-3.89-8.76-6.07-14.59-4.55-13.19-8.31-27.41-11.55-42.33-1.52-6.98-2.3-11.56-3.69-21.41,39.27-11.28,66.5-3.97,79.47-1.52,6.47.7,7.26-5.9,7.26-5.9,0,0,.27-3.05,1.59-18.88-49.22-13.58-85.96-2.41-91.53-.73q-2.34-22.43-1.94-59.05c63.68-28.13,123.96,2.04,135.98,7.79.77-17.05,1.8-31.25,1.8-31.25C126.24.12,90.6-1.89,62.53,1.21Z"/>
  </g>
  <g>
    <path class="st1" d="M283.86,203.67h23.88v-61.38s16.47.19,40.04.19v-14.59c-22.22,0-40.04-.52-40.04-.52v-38.5c13.34,0,25.68-.03,41.42-.03v-16.62h-65.3v131.45Z"/>
    <path class="st1" d="M395.73,171.37v-99.14h-26.08v108.15c0,25.03-5.04,39.3-15.1,42.81l2.06,13.97c12.71-4.08,23.23-8.47,30.09-20.48,4.12-5.52,9.48-23.53,9.03-41.55v-3.76Z"/>
    <path class="st1" d="M481.62,72.23h-60.02v131.36h48.98c40.93-2.51,59.59-25.67,61.89-69.46-1.84-38.75-16.83-59.38-50.86-61.91ZM462.99,186.64h-15.18v-97.06h17.25c27.13,0,40.7,10.83,40.7,44.55,0,39.26-14.26,53.02-42.77,52.51Z"/>
    <g>
      <path class="st1" d="M607.46,93.85v109.79h-22.6v-109.79h-30.83v-20.81h84.22v20.81h-30.79Z"/>
      <path class="st1" d="M908.4,112.7c-9.04,0-22.9-.84-29.75,9.36v-6.57h-18.29v88.15h19.39v-42.06c0-10.61,0-16.16,3.84-21.58,4.66-6.6,9.38-8.05,16.21-8.43,16.17,0,22.74,6.23,22.74,25.07v47h19.57v-54.87c0-10.24-1.78-17.92-5.99-24.33-4.94-7.87-15.1-11.75-27.72-11.75Z"/>
      <g>
        <rect class="st1" x="708.7" y="111.76" width="20.19" height="91.88"/>
        <rect class="st1" x="708.7" y="73.8" width="20.19" height="20.19"/>
      </g>
      <path class="st1" d="M660.46,127.01v-8.12h-22.47v84.75h22.47v-49.49c0-9.82,7.96-17.77,17.77-17.77h1.22c1.42,0,2.84.17,4.22.5l6.02,1.46,4.44-15.6c-22.64-9-33.68,4.27-33.68,4.27Z"/>
      <path class="st1" d="M796.59,116.68c-24.31,0-45.34,12.25-45.34,44.77,0,29.24,20.68,44.95,45.34,44.95s45.34-15.7,45.34-44.95c0-32.52-21.03-44.77-45.34-44.77ZM796.59,188.96c-22.42,0-26.43-18.4-26.43-27.34,0-18.78,11.43-27.47,26.43-27.47s26.43,8.68,26.43,27.47c0,8.93-4.01,27.34-26.43,27.34Z"/>
    </g>
  </g>
</svg>