<?xml version="1.0" encoding="UTF-8"?>
<svg id="_图层_1" data-name="图层_1" xmlns="http://www.w3.org/2000/svg" version="1.1" viewBox="0 0 816.61 297.68">
  <!-- Generator: Adobe Illustrator 29.7.1, SVG Export Plug-In . SVG Version: 2.1.1 Build 8)  -->
  <defs>
    <style>
      .st0 {
        fill-rule: evenodd;
      }

      .st0, .st1 {
        fill: #020202;
      }
    </style>
  </defs>
  <g>
    <path class="st1" d="M260.29,89.25v33.55h-13.05V50.96h35.69v9.08c-8.6,0-15.34.02-22.63.02v21.04s9.74.29,21.88.29v7.97c-12.88,0-21.88-.11-21.88-.11Z"/>
    <path class="st1" d="M313.84,50.96v56.56c.25,9.91-2.7,19.81-4.96,22.84-3.77,6.6-9.55,9.02-16.54,11.26l-1.13-7.68c5.53-1.93,8.3-9.77,8.3-23.53v-59.45h14.33Z"/>
    <path class="st1" d="M330.43,50.96h32.82c18.61,1.38,28.42,12.66,29.42,33.85-1.26,23.94-13.08,36.61-35.46,37.98h-26.78V50.96ZM344.77,57.16v59.45h8.3c15.59.28,23.39-10.32,23.39-31.79,0-18.44-7.42-27.66-22.26-27.66h-9.43Z"/>
    <path class="st1" d="M414.1,122.8v-30.14c-18.75-41.7-16.99-37.84-18.75-41.7h14.06c15.95,30.49-.13-.25,15.95,30.49l15.27-30.49h8.08c-13.54,26.9,0,0-20.27,40.5v31.34h-14.33Z"/>
    <path class="st1" d="M458.61,122.8V50.96h9.43c4.53,5.51,35.21,41.43,41.5,49.13v-49.13h7.92v71.84h-8.3l-43.01-50.78v50.78h-7.54Z"/>
    <path class="st1" d="M565.59,101.33h-22.26l-7.52,21.47h-9.29l27.92-73.07h7.17l26.78,73.07h-16c-2.02-7.15-4.28-14.31-6.79-21.47ZM545.59,94.73h17.73l-8.3-24.36-9.43,24.36Z"/>
    <path class="st1" d="M632.89,100.51c2.01-4.68,18.86-41.01,22.63-49.54h7.92c0,1.93,6.41,59.45,8.68,71.84h-15.84c-.51-8.26-3.9-44.86-4.15-48.72-7.54,16.24-14.71,32.48-21.5,48.72h-3.77c-4.28-9.63-11.32-25.45-21.13-47.48l-3.77,47.48h-9.05l9.81-71.84h7.92c3.02,7.99,10.43,24.5,22.26,49.54Z"/>
    <path class="st1" d="M683.82,122.8V50.96h14.71v71.84h-14.71Z"/>
    <path class="st1" d="M766.06,110.41l1.13.83-1.89,9.08c-5.79,2.21-12.2,3.44-19.24,3.72-23.14-.83-35.21-12.52-36.22-35.09.75-25.32,13.58-38.67,38.48-40.05,7.69.28,14.34,2.14,19.94,5.56-2.74,11.17.16-.63-2.59,10.54h-1.51c-1.22-1.73-2.53-3.24-3.92-4.52-7-6.46-17.44-6.78-24.69-.66-6.1,5.14-9.39,14.44-9.87,27.88.5,19.82,8.17,30,23.01,30.55,6.03,0,11.82-2.61,17.35-7.84Z"/>
    <path class="st1" d="M810.2,64.59h-1.13c-2.52-6.33-6.29-9.5-11.32-9.5-7.04.28-10.56,3.86-10.56,10.73,0,4.13,3.9,8.4,11.69,12.8,11.57,6.34,17.48,13.9,17.73,22.71-.98,13.89-9.07,21.43-24.26,22.62-.92.07-1.86.07-2.78,0-4.84-.41-9.57-1.63-14.19-3.67,3.48-18.48-.93,4.91,2.56-13.58h2.08c1.51,7.43,5.91,11.29,13.2,11.56,7.04-.27,10.81-3.85,11.32-10.73,0-4.95-4.15-9.5-12.45-13.62-10.82-5.5-16.22-13.07-16.22-22.71.5-14.04,7.92-21.47,22.26-22.29,5.82.27,10.82,1.81,15,4.63-2.89,10.91-.04.15-2.93,11.05Z"/>
  </g>
  <g>
    <path class="st0" d="M162.14,60.55c-2.28-1.65-14.9-6.39-25.4-8.9-1.23,28.74-1.76,44.7-1.82,46.94-.23,3.22-.5,6.44-.81,9.69-.12.85-.24,1.83-.24,2.81-.97,8.78-2.19,17.56-3.66,25.98-3.9,22.32-9.62,43.18-16.68,61.71-2.07,5.73-4.38,11.22-6.82,16.46-7.43,16.22-15.95,30.13-25.21,41.23-3.77-4.63-7.43-9.64-10.96-15.12-4.14-6.34-8.04-13.3-11.69-20.86-1.58-3.17-4.75-5.37-8.4-5.73-4.26-.49-8.65-.97-12.91-1.59-8.28-1.59-13.03-9.27-13.03-9.27,0,0,3.17,8.9,5.72,15.12.12,0,.12.12.12.12,5.48,13.41,11.57,25.86,18.15,36.95,4.02,6.83,8.28,13.3,12.66,19.15,6.46,8.54,13.28,16.1,20.34,22.44,7.06-6.34,13.88-13.91,20.34-22.44,13.03-17.19,24.48-38.78,33.86-63.54,2.07-5.61,4.02-11.34,5.97-17.2,6.33-19.88,11.2-41.47,14.49-64.15.85-5.49,1.59-11.1,2.07-16.71.49-4.51.97-9.03,1.22-13.41.73-9.5,2.81-38.36,2.7-39.68Z"/>
    <path class="st0" d="M162.6,48.65c.78-17.1,1.8-31.34,1.8-31.34C126.61.12,90.87-1.9,62.72,1.22,53.41,2.21,25.69,5.85,0,17.46c.63,32.92,1.46,52.49,5.87,99.97.62,5.46,6.21,46.96,13.89,71.12,1.2,3.79,4.13,6.44,8.03,7.17,4.51.85,9.13,1.46,13.76,2.07,4.87.61,11.2,7.93,11.2,7.93,0,0-3.9-8.78-6.09-14.63-4.56-13.23-8.33-27.49-11.59-42.45-1.52-7-2.3-11.59-3.7-21.47,39.38-11.31,66.69-3.98,79.7-1.52,6.49.7,7.29-5.92,7.29-5.92,0,0,.27-3.06,1.6-18.94-49.36-13.62-86.21-2.42-91.8-.74q-2.35-22.5-1.95-59.22c63.87-28.21,124.32,2.05,136.38,7.81Z"/>
  </g>
  <g>
    <path class="st1" d="M571.65,186.99l.8-1.45c3.11,2.63,7.01,6.05,11.65,9.77,3.86,3.07,6.51,5.16,7.98,6.31l-.26-4.94c-15.65-15.38-.36-.35-15.35-15.09h1.17s0,0,0-.01h16.16v-2.33h-17.47c.04-1.06.1-2.49.06-2.76-.04-.38-.3-7.84-.38-10.2h14.25v-3.25h-28.49c1.96-2.33,3.72-4.43,5.27-6.25l-8.96-1.77c-2.83,6.76-5.79,13.77-8.87,20.96v1.78c1.69-1.94,3.93-4.61,6.68-7.94,1.31-1.5,2.32-2.66,3.05-3.52h8.1v8.04c0,1.45-.29,3.1-.82,4.93h-18.88v2.33h18.14c-2.79,7-8.18,13.6-16.19,19.79l.63,2.7c9.89-4.27,17.11-9.97,21.72-17.07Z"/>
    <path class="st1" d="M567.03,204.03l-8.96-1.77v38.29l8.96-1.77h48.13l8.96,1.77v-38.29l-8.96,1.77h-48.13ZM615.16,236.39h-48.13v-13.82h48.13v13.82ZM615.16,220.24h-48.13v-13.82h48.13v13.82Z"/>
    <path class="st1" d="M601.71,161.45l-6.14-1.22v38.58l7.27-1.52h21.09l7.27,1.52v-38.58l-6.14,1.22h-23.35ZM622.24,194.97h-17.72v-31.19h17.72v31.19Z"/>
    <path class="st1" d="M509.78,192.49v-24.28l-7.39,1.53h-24.97l-7.31-1.53v24.28l7.31-1.62h24.97l7.39,1.62ZM493.64,171.4h8.75v7.4h-8.75v-7.4ZM486.25,189.13h-8.83v-7.5h8.83v7.5ZM486.25,178.81h-8.83v-7.4h8.83v7.4ZM493.64,181.64h8.75v7.5h-8.75v-7.5Z"/>
    <path class="st1" d="M439.93,193.34l2.4-13.64h8.41l8.05,1.5v-22.64l-8.96,1.67h-19.59v3.25h19.59v14.1h-7.94l-8.11-1.6-3.54,19.29,9.05,1.67.2-1.67h12.11v26.97l-.1,1.77c-.88,6.97-4.25,12.09-10.09,15.4l.7,2.43c11.94-2.12,18.11-9.43,18.35-22.06v-28.05l-8.04,1.61h-12.5Z"/>
    <polygon class="st1" points="449.2 221.55 447.1 221.96 447.1 221.96 443.99 222.57 443.99 211.84 449.5 211.84 449.5 211.38 449.5 211.38 449.5 209.8 449.5 209.8 449.5 209.34 443.99 209.34 443.99 202.11 436.03 200.54 436.03 209.34 430.52 209.34 430.52 209.8 430.52 211.38 430.52 211.84 436.03 211.84 436.03 224.12 429.7 225.36 429.74 227.9 449.68 224.01 449.2 221.55"/>
    <rect class="st1" x="462.15" y="158.93" width="55.51" height="4.07"/>
    <rect class="st1" x="462.15" y="235.9" width="55.51" height="4.07"/>
    <rect class="st1" x="466.14" y="197.88" width="47.52" height="3.01"/>
    <path class="st1" d="M470.11,206.26v24.28l7.31-1.62h24.97l7.39,1.62v-24.28l-7.39,1.53h-24.97l-7.31-1.53ZM486.25,227.17h-8.83v-7.5h8.83v7.5ZM493.64,209.44h8.75v7.4h-8.75v-7.4ZM493.64,219.68h8.75v7.5h-8.75v-7.5ZM486.25,216.85h-8.83v-7.4h8.83v7.4Z"/>
    <path class="st1" d="M714.25,155.01v31.52c.42,4.82,2.83,7.69,7.31,8.53h28.05l2.15-2.74h-25.78c-.92,0-1.55-.43-1.99-.98-.2-.29-.4-.57-.54-.92-.03-.08-.07-.16-.1-.23-.2-.57-.34-1.21-.4-1.93v-7.77c1.94-1.18,5.45-3.34,10.56-6.55,8.11-5.15,14.45-9.13,18.97-11.92l-8.79-1.77-20.75,16.06v-19.52l-8.7-1.77Z"/>
    <path class="st1" d="M692.61,165.55c3.79,4.61,7.59,9.13,11.44,13.57.09.11,2.97,3.4,4.01,4.63,1.12,1.26,1.93,2.17,2.46,2.76h1.67c-4.4-9.45-7.94-17.02-10.63-22.74l-8.96,1.78Z"/>
    <path class="st1" d="M673.1,183.27c.03-.07.08-.14.12-.2l.15-.23h28.92l2.15-3.25h-28.99c4.39-6.82,9.21-14.4,14.51-22.8l-8.85-1.77c-5.59,8.92-11.52,18.28-17.82,28.05l8.86,1.77c.29-.47.61-.99.95-1.57Z"/>
    <path class="st1" d="M675.35,189.99l-8.53-1.71v54.04l8.86-1.77v-19h24.11v1.67c-.69,7.25-3.98,12.58-9.87,16l.36,2.61c11.95-2.13,18.12-9.44,18.37-22.05v-31.5l-8.53,1.71h-24.77ZM699.8,219.06h-24.11v-12.21h24.11v12.21ZM699.8,204.53h-24.11v-12.21h24.11v12.21Z"/>
    <path class="st1" d="M742.25,210.43c4.53-2.82,7.95-4.96,10.25-6.39l-8.82-1.78-20.71,16.03v-19.48l-8.72-1.87v35.04c.51,5.18,3.42,8.03,8.72,8.56h26.64l2.15-2.74h-25.78c-.44,0-.79-.12-1.11-.28-1.08-.88-1.72-2.19-1.91-3.96v-11.12c3.07-1.97,9.5-5.97,19.28-12.01Z"/>
    <polygon class="st1" points="386.52 227.59 377.34 227.62 372.52 235.9 345.79 235.9 340.98 227.62 331.79 227.59 337.28 235.9 315.77 235.9 315.77 239.97 402.44 239.97 402.44 235.9 381.04 235.9 386.52 227.59"/>
    <polygon class="st1" points="330.95 184.06 332.3 186.65 339.91 186.65 339.91 192.31 343.38 191.47 343.38 186.65 350.57 186.65 351.93 184.06 343.38 184.06 343.38 177 350.57 177 351.61 174.52 343.38 174.52 343.38 168.06 350.75 168.06 351.99 165.66 343.38 165.66 343.38 162.78 339.91 161.8 339.91 165.66 331.58 165.66 332.76 168.06 339.91 168.06 339.91 174.52 331.96 174.52 332.94 177 339.91 177 339.91 184.06 330.95 184.06"/>
    <polygon class="st1" points="365.95 184.06 367.3 186.65 374.91 186.65 374.91 192.31 378.38 191.47 378.38 186.65 385.57 186.65 386.93 184.06 378.38 184.06 378.38 177 385.57 177 386.61 174.52 378.38 174.52 378.38 168.06 385.75 168.06 386.99 165.66 378.38 165.66 378.38 162.78 374.91 161.8 374.91 165.66 366.58 165.66 367.76 168.06 374.91 168.06 374.91 174.52 366.96 174.52 367.94 177 374.91 177 374.91 184.06 365.95 184.06"/>
    <path class="st1" d="M325.56,207.1v18.64l8.87-1.59h49.4l8.87,1.59v-18.64l-8.72,1.39h-49.69l-8.73-1.39ZM383.83,211.11v10.36h-49.4v-10.36h49.4Z"/>
    <polygon class="st1" points="390.65 196.75 397.08 197.62 397.08 166.29 390.54 165.67 390.54 193.54 362.89 193.54 362.89 157.69 355.58 157 355.58 193.54 328.11 193.54 328.11 166.35 321.17 165.67 321.17 197.62 327.97 196.75 390.65 196.75"/>
    <rect class="st1" x="317.99" y="201.08" width="82.27" height="3.26"/>
  </g>
</svg>