<?xml version="1.0" encoding="UTF-8"?>
<svg id="_图层_1" data-name="图层_1" xmlns="http://www.w3.org/2000/svg" version="1.1" viewBox="0 0 816.61 297.68">
  <!-- Generator: Adobe Illustrator 29.7.1, SVG Export Plug-In . SVG Version: 2.1.1 Build 8)  -->
  <defs>
    <style>
      .st0 {
        fill-rule: evenodd;
      }

      .st0, .st1 {
        fill: #020202;
      }
    </style>
  </defs>
  <g>
    <path class="st1" d="M260.29,89.25v33.55h-13.05V50.96h35.69v9.08c-8.6,0-15.34.02-22.63.02v21.04s9.74.29,21.88.29v7.97c-12.88,0-21.88-.11-21.88-.11Z"/>
    <path class="st1" d="M313.84,50.96v56.56c.25,9.91-2.7,19.81-4.96,22.84-3.77,6.6-9.55,9.02-16.54,11.26l-1.13-7.68c5.53-1.93,8.3-9.77,8.3-23.53v-59.45h14.33Z"/>
    <path class="st1" d="M330.43,50.96h32.82c18.61,1.38,28.42,12.66,29.42,33.85-1.26,23.94-13.08,36.61-35.46,37.98h-26.78V50.96ZM344.77,57.16v59.45h8.3c15.59.28,23.39-10.32,23.39-31.79,0-18.44-7.42-27.66-22.26-27.66h-9.43Z"/>
    <path class="st1" d="M414.1,122.8v-30.14c-18.75-41.7-16.99-37.84-18.75-41.7h14.06c15.95,30.49-.13-.25,15.95,30.49l15.27-30.49h8.08c-13.54,26.9,0,0-20.27,40.5v31.34h-14.33Z"/>
    <path class="st1" d="M458.61,122.8V50.96h9.43c4.53,5.51,35.21,41.43,41.5,49.13v-49.13h7.92v71.84h-8.3l-43.01-50.78v50.78h-7.54Z"/>
    <path class="st1" d="M565.59,101.33h-22.26l-7.52,21.47h-9.29l27.92-73.07h7.17l26.78,73.07h-16c-2.02-7.15-4.28-14.31-6.79-21.47ZM545.59,94.73h17.73l-8.3-24.36-9.43,24.36Z"/>
    <path class="st1" d="M632.89,100.51c2.01-4.68,18.86-41.01,22.63-49.54h7.92c0,1.93,6.41,59.45,8.68,71.84h-15.84c-.51-8.26-3.9-44.86-4.15-48.72-7.54,16.24-14.71,32.48-21.5,48.72h-3.77c-4.28-9.63-11.32-25.45-21.13-47.48l-3.77,47.48h-9.05l9.81-71.84h7.92c3.02,7.99,10.43,24.5,22.26,49.54Z"/>
    <path class="st1" d="M683.82,122.8V50.96h14.71v71.84h-14.71Z"/>
    <path class="st1" d="M766.06,110.41l1.13.83-1.89,9.08c-5.79,2.21-12.2,3.44-19.24,3.72-23.14-.83-35.21-12.52-36.22-35.09.75-25.32,13.58-38.67,38.48-40.05,7.69.28,14.34,2.14,19.94,5.56-2.74,11.17.16-.63-2.59,10.54h-1.51c-1.22-1.73-2.53-3.24-3.92-4.52-7-6.46-17.44-6.78-24.69-.66-6.1,5.14-9.39,14.44-9.87,27.88.5,19.82,8.17,30,23.01,30.55,6.03,0,11.82-2.61,17.35-7.84Z"/>
    <path class="st1" d="M810.2,64.59h-1.13c-2.52-6.33-6.29-9.5-11.32-9.5-7.04.28-10.56,3.86-10.56,10.73,0,4.13,3.9,8.4,11.69,12.8,11.57,6.34,17.48,13.9,17.73,22.71-.98,13.89-9.07,21.43-24.26,22.62-.92.07-1.86.07-2.78,0-4.84-.41-9.57-1.63-14.19-3.67,3.48-18.48-.93,4.91,2.56-13.58h2.08c1.51,7.43,5.91,11.29,13.2,11.56,7.04-.27,10.81-3.85,11.32-10.73,0-4.95-4.15-9.5-12.45-13.62-10.82-5.5-16.22-13.07-16.22-22.71.5-14.04,7.92-21.47,22.26-22.29,5.82.27,10.82,1.81,15,4.63-2.89,10.91-.04.15-2.93,11.05Z"/>
  </g>
  <g>
    <polygon class="st1" points="363.56 195.19 394.86 195.19 397.74 190 363.56 190 363.56 170.83 396.24 170.83 399.23 165.64 363.56 165.64 363.56 156.71 354.59 155.03 354.59 165.64 318.92 165.64 322 170.83 354.59 170.83 354.59 190 320.41 190 323.38 195.19 354.59 195.19 354.59 216.24 310.97 216.24 314.66 221.42 354.59 221.42 354.59 242.44 363.56 240.67 363.56 221.42 403.6 221.42 407.18 216.24 363.56 216.24 363.56 195.19"/>
    <path class="st1" d="M571.8,187.05l.81-1.45c3.12,2.63,7.02,6.06,11.66,9.78,3.86,3.07,6.51,5.17,7.99,6.31l-.26-4.95c-15.67-15.4-.36-.35-15.37-15.1h1.17s0,0,0-.01h16.18v-2.33h-17.49c.04-1.06.1-2.49.06-2.77-.04-.38-.3-7.85-.38-10.21h14.26v-3.25h-28.52c1.96-2.33,3.72-4.44,5.28-6.26l-8.97-1.78c-2.83,6.77-5.8,13.79-8.88,20.98v1.78c1.69-1.95,3.93-4.61,6.68-7.95,1.31-1.5,2.32-2.66,3.05-3.52h8.11v8.05c0,1.45-.29,3.1-.82,4.93h-18.9v2.33h18.17c-2.79,7.01-8.19,13.62-16.21,19.81l.63,2.71c9.9-4.27,17.13-9.98,21.74-17.09Z"/>
    <path class="st1" d="M567.17,204.11l-8.97-1.77v38.33l8.97-1.77h48.19l8.97,1.77v-38.33l-8.97,1.77h-48.19ZM567.17,236.5v-13.84h48.19v13.84h-48.19ZM567.17,220.34v-13.84h48.19v13.84h-48.19Z"/>
    <path class="st1" d="M601.9,161.47l-6.15-1.22v38.63l7.28-1.52h21.11l7.28,1.52v-38.63l-6.15,1.22h-23.37ZM622.46,195.04h-17.74v-31.23h17.74v31.23Z"/>
    <path class="st1" d="M509.85,192.56v-24.31l-7.4,1.53h-25l-7.32-1.53v24.31l7.32-1.62h25l7.4,1.62ZM502.46,171.44v7.41h-8.76v-7.41h8.76ZM486.3,171.44v7.41h-8.84v-7.41h8.84ZM477.46,189.19v-7.51h8.84v7.51h-8.84ZM493.69,181.69h8.76v7.51h-8.76v-7.51Z"/>
    <path class="st1" d="M439.92,193.4l2.4-13.66h8.42l8.06,1.51v-22.67l-8.97,1.67h-19.61s0,0,0,0v3.25h19.61v14.12h-7.95l-8.12-1.6-3.55,19.31,9.07,1.68.2-1.68h12.12v27l-.1,1.77c-.88,6.98-4.26,12.1-10.1,15.42l.7,2.43c11.95-2.12,18.13-9.44,18.37-22.09v-28.09l-8.05,1.61h-12.52Z"/>
    <polygon class="st1" points="449.2 221.65 447.1 222.06 447.1 222.06 443.98 222.67 443.98 211.93 449.5 211.93 449.5 211.46 449.5 211.46 449.5 209.89 449.5 209.89 449.5 209.42 443.98 209.42 443.98 202.18 436.02 200.61 436.02 209.42 430.5 209.42 430.5 209.89 430.5 211.46 430.5 211.93 436.02 211.93 436.02 224.23 429.68 225.46 429.71 228.01 449.68 224.11 449.2 221.65"/>
    <rect class="st1" x="462.16" y="158.95" width="55.58" height="4.08"/>
    <rect class="st1" x="462.16" y="236.02" width="55.58" height="4.08"/>
    <rect class="st1" x="466.17" y="197.95" width="47.57" height="3.01"/>
    <path class="st1" d="M470.14,206.34v24.31l7.32-1.62h25l7.4,1.62v-24.31l-7.4,1.53h-25l-7.32-1.53ZM477.46,227.28v-7.51h8.84v7.51h-8.84ZM493.69,227.28v-7.51h8.76v7.51h-8.76ZM502.46,209.53v7.41h-8.76v-7.41h8.76ZM486.3,216.94h-8.84v-7.41h8.84v7.41Z"/>
    <path class="st1" d="M721.9,195.13h28.08l2.16-2.75h-25.81c-.92,0-1.56-.43-2-.98-.2-.29-.4-.57-.54-.92-.03-.08-.07-.16-.1-.23-.2-.57-.34-1.21-.4-1.94v-7.78c1.95-1.18,5.46-3.34,10.58-6.56,8.12-5.16,14.47-9.14,19-11.93l-8.8-1.78-20.77,16.08v-19.55l-8.71-1.78v31.56c.42,4.82,2.83,7.7,7.32,8.55Z"/>
    <path class="st1" d="M692.91,165.58c3.79,4.62,7.6,9.14,11.46,13.58.09.11,2.97,3.4,4.02,4.64,1.12,1.26,1.93,2.17,2.46,2.76h1.67c-4.4-9.46-7.95-17.04-10.64-22.77l-8.97,1.78Z"/>
    <path class="st1" d="M673.38,183.32c.03-.06.08-.14.12-.2l.15-.23h28.95l2.15-3.26h-29.03c4.39-6.83,9.22-14.42,14.53-22.82l-8.86-1.77c-5.6,8.93-11.53,18.3-17.84,28.08l8.87,1.77c.29-.47.61-.99.96-1.57Z"/>
    <path class="st1" d="M675.63,190.05l-8.54-1.72v54.1l8.87-1.77v-19.02h24.14v1.68c-.69,7.26-3.99,12.6-9.88,16.02l.36,2.61c11.97-2.13,18.14-9.45,18.39-22.07v-31.54l-8.54,1.72h-24.8ZM675.97,219.15v-12.22h24.14v12.22h-24.14ZM675.97,204.6v-12.22h24.14v12.22h-24.14Z"/>
    <path class="st1" d="M725.22,237.65c-1.08-.88-1.73-2.19-1.91-3.97v-11.14c3.08-1.98,9.51-5.98,19.3-12.03,4.54-2.82,7.96-4.96,10.26-6.4l-8.83-1.78-20.73,16.05v-19.5l-8.74-1.87v35.08c.51,5.19,3.42,8.04,8.74,8.57h26.67l2.16-2.75h-25.81c-.44,0-.79-.12-1.11-.28Z"/>
  </g>
  <g>
    <path class="st0" d="M162.14,60.55c-2.28-1.65-14.9-6.39-25.4-8.9-1.23,28.74-1.76,44.7-1.82,46.94-.23,3.22-.5,6.44-.81,9.69-.12.85-.24,1.83-.24,2.81-.97,8.78-2.19,17.56-3.66,25.98-3.9,22.32-9.62,43.18-16.68,61.71-2.07,5.73-4.38,11.22-6.82,16.46-7.43,16.22-15.95,30.13-25.21,41.23-3.77-4.63-7.43-9.64-10.96-15.12-4.14-6.34-8.04-13.3-11.69-20.86-1.58-3.17-4.75-5.37-8.4-5.73-4.26-.49-8.65-.97-12.91-1.59-8.28-1.59-13.03-9.27-13.03-9.27,0,0,3.17,8.9,5.72,15.12.12,0,.12.12.12.12,5.48,13.41,11.57,25.86,18.15,36.95,4.02,6.83,8.28,13.3,12.66,19.15,6.46,8.54,13.28,16.1,20.34,22.44,7.06-6.34,13.88-13.91,20.34-22.44,13.03-17.19,24.48-38.78,33.86-63.54,2.07-5.61,4.02-11.34,5.97-17.2,6.33-19.88,11.2-41.47,14.49-64.15.85-5.49,1.59-11.1,2.07-16.71.49-4.51.97-9.03,1.22-13.41.73-9.5,2.81-38.36,2.7-39.68Z"/>
    <path class="st0" d="M162.6,48.65c.78-17.1,1.8-31.34,1.8-31.34C126.61.12,90.87-1.9,62.72,1.22,53.41,2.21,25.69,5.85,0,17.46c.63,32.92,1.46,52.49,5.87,99.97.62,5.46,6.21,46.96,13.89,71.12,1.2,3.79,4.13,6.44,8.03,7.17,4.51.85,9.13,1.46,13.76,2.07,4.87.61,11.2,7.93,11.2,7.93,0,0-3.9-8.78-6.09-14.63-4.56-13.23-8.33-27.49-11.59-42.45-1.52-7-2.3-11.59-3.7-21.47,39.38-11.31,66.69-3.98,79.7-1.52,6.49.7,7.29-5.92,7.29-5.92,0,0,.27-3.06,1.6-18.94-49.36-13.62-86.21-2.42-91.8-.74q-2.35-22.5-1.95-59.22c63.87-28.21,124.32,2.05,136.38,7.81Z"/>
  </g>
</svg>